<svg width="20" height="20" viewBox="0 0 20 20" fill="none" xmlns="http://www.w3.org/2000/svg">
<g clip-path="url(#clip0_3_3)">
<path fill-rule="evenodd" clip-rule="evenodd" d="M10 6.66667C9.11596 6.66667 8.26811 7.01786 7.64299 7.64298C7.01787 8.2681 6.66668 9.11595 6.66668 10C6.66668 10.8841 7.01787 11.7319 7.64299 12.357C8.26811 12.9821 9.11596 13.3333 10 13.3333C10.8841 13.3333 11.7319 12.9821 12.357 12.357C12.9822 11.7319 13.3333 10.8841 13.3333 10C13.3333 9.11595 12.9822 8.2681 12.357 7.64298C11.7319 7.01786 10.8841 6.66667 10 6.66667ZM8.8215 8.82149C9.13406 8.50893 9.55798 8.33333 10 8.33333C10.442 8.33333 10.866 8.50893 11.1785 8.82149C11.4911 9.13405 11.6667 9.55797 11.6667 10C11.6667 10.442 11.4911 10.866 11.1785 11.1785C10.866 11.4911 10.442 11.6667 10 11.6667C9.55798 11.6667 9.13406 11.4911 8.8215 11.1785C8.50894 10.866 8.33334 10.442 8.33334 10C8.33334 9.55797 8.50894 9.13405 8.8215 8.82149Z" fill="#030723"/>
<path fill-rule="evenodd" clip-rule="evenodd" d="M9.15084 0.833334C8.7723 0.833334 8.44132 1.08847 8.34496 1.45454L7.92266 3.05887L6.58096 3.62447L5.55392 2.71073C5.22416 2.41736 4.72285 2.43198 4.41075 2.74408L2.74409 4.41074C2.44217 4.71266 2.4173 5.19394 2.68648 5.52537L3.58659 6.63363L3.03462 7.99156L1.47722 8.35515C1.10011 8.44319 0.833344 8.77942 0.833344 9.16667V10.8333C0.833344 11.2091 1.08483 11.5384 1.44736 11.6373L3.05709 12.0764L3.62421 13.4218L2.71139 14.4454C2.41738 14.7751 2.43173 15.2769 2.74409 15.5893L4.41075 17.2559C4.71308 17.5582 5.19515 17.5827 5.52655 17.3126L6.63441 16.4095L7.95897 16.9543L8.3587 18.5374C8.45214 18.9074 8.78502 19.1667 9.16668 19.1667H10.8333C11.2148 19.1667 11.5476 18.9076 11.6412 18.5378L12.042 16.954L13.4108 16.3871C13.5486 16.5026 13.7066 16.6382 13.8638 16.7751C14.02 16.9112 14.1652 17.0393 14.2715 17.1336C14.3245 17.1807 14.3678 17.2192 14.3976 17.2459L14.4429 17.2864C14.7724 17.582 15.2762 17.569 15.5893 17.2559L17.2559 15.5893C17.5626 15.2825 17.5828 14.7919 17.3023 14.461L16.3945 13.3906L16.9562 12.0339L18.5429 11.6215C18.9102 11.5261 19.1667 11.1945 19.1667 10.815V9.16667C19.1667 8.78557 18.9081 8.45302 18.5388 8.35906L16.9619 7.95787L16.4016 6.60445L17.3031 5.53796C17.5828 5.20708 17.5623 4.71709 17.2559 4.41074L15.5893 2.74408C15.2817 2.43648 14.7892 2.41723 14.4586 2.69987L13.3999 3.60473L11.9988 3.02866L11.5851 1.45481C11.4889 1.08861 11.1578 0.833334 10.7792 0.833334H9.15084ZM15.5346 14.9535L14.9645 15.5236L14.9583 15.5182C14.6505 15.2502 14.2541 14.9111 14.0305 14.7513C13.7965 14.584 13.4927 14.5492 13.227 14.6593L11.0178 15.5743C10.7746 15.675 10.5934 15.8846 10.5288 16.1397L10.1846 17.5H9.81574L9.47215 16.1393C9.40751 15.8833 9.22538 15.6731 8.9812 15.5727L6.80953 14.6793C6.52675 14.563 6.20297 14.6109 5.96597 14.8041L5.05696 15.5451L4.4791 14.9672L5.21863 14.138C5.43272 13.8979 5.48952 13.556 5.36457 13.2596L4.4354 11.0555C4.33599 10.8196 4.13373 10.6426 3.88683 10.5752L2.50001 10.1969V9.82786L3.83363 9.51651C4.09709 9.455 4.3143 9.26943 4.41617 9.0188L5.31617 6.80463C5.43064 6.52302 5.38268 6.20142 5.19104 5.96546L4.45394 5.05791L5.03341 4.47844L5.8661 5.21927C6.10616 5.43284 6.44763 5.48937 6.74371 5.36456L8.94788 4.43539C9.18612 4.33496 9.36425 4.12965 9.43006 3.87963L9.79321 2.5H10.1366L10.4924 3.85353C10.5588 4.10617 10.7398 4.31306 10.9815 4.4124L13.2373 5.3399C13.5265 5.45881 13.8579 5.4058 14.0956 5.20263L14.9557 4.4675L15.5355 5.04734L14.8011 5.91621C14.5998 6.15431 14.5483 6.48484 14.6675 6.7729L15.5817 8.98124C15.6822 9.2241 15.8915 9.4053 16.1462 9.47011L17.5 9.81453V10.1705L16.1354 10.5251C15.8825 10.5908 15.675 10.7714 15.5751 11.0129L14.6601 13.2229C14.5406 13.5114 14.5925 13.8425 14.7944 14.0806L15.5346 14.9535Z" fill="#030723"/>
</g>
<defs>
<clipPath id="clip0_3_3">
<rect width="20" height="20" fill="white"/>
</clipPath>
</defs>
</svg>
