<svg width="44" height="88" viewBox="0 0 44 88" fill="none" xmlns="http://www.w3.org/2000/svg">
<g clip-path="url(#clip0_2_108)">
<path d="M20.3333 17.5C20.3333 17.0109 20.5158 16.698 20.7553 16.4948C21.0129 16.2762 21.3861 16.1458 21.7917 16.1458C22.1972 16.1458 22.5704 16.2762 22.828 16.4948C23.0676 16.698 23.25 17.0109 23.25 17.5C23.25 17.8643 23.1642 18.0666 23.0644 18.2161C22.9481 18.3907 22.795 18.5283 22.5361 18.761L22.4842 18.8077C22.2179 19.0474 21.8675 19.3714 21.6003 19.8434C21.325 20.3298 21.1667 20.9176 21.1667 21.6667C21.1667 22.1269 21.5398 22.5 22 22.5C22.4602 22.5 22.8333 22.1269 22.8333 21.6667C22.8333 21.1658 22.9354 20.8681 23.0507 20.6644C23.1742 20.4463 23.3446 20.2756 23.5991 20.0465C23.622 20.0259 23.6462 20.0044 23.6714 19.9819C23.8991 19.7789 24.211 19.5009 24.4512 19.1406C24.7421 18.7043 24.9167 18.1774 24.9167 17.5C24.9167 16.5308 24.5262 15.7499 23.9063 15.224C23.3046 14.7134 22.532 14.4792 21.7917 14.4792C21.0514 14.4792 20.2787 14.7134 19.677 15.224C19.0571 15.7499 18.6667 16.5308 18.6667 17.5C18.6667 17.9602 19.0398 18.3333 19.5 18.3333C19.9602 18.3333 20.3333 17.9602 20.3333 17.5Z" fill="#030723"/>
<path d="M22.6249 25.5598C22.9345 25.2192 22.9095 24.6922 22.5689 24.3826C22.2284 24.073 21.7013 24.0981 21.3917 24.4386L21.3834 24.4478C21.0738 24.7883 21.0989 25.3153 21.4394 25.6249C21.78 25.9345 22.307 25.9095 22.6166 25.5689L22.6249 25.5598Z" fill="#030723"/>
<path fill-rule="evenodd" clip-rule="evenodd" d="M22 10.8333C16.9373 10.8333 12.8333 14.9373 12.8333 20C12.8333 25.0627 16.9373 29.1667 22 29.1667C27.0627 29.1667 31.1667 25.0627 31.1667 20C31.1667 14.9373 27.0627 10.8333 22 10.8333ZM14.5 20C14.5 15.8577 17.8577 12.5 22 12.5C26.1423 12.5 29.5 15.8577 29.5 20C29.5 24.1423 26.1423 27.5 22 27.5C17.8577 27.5 14.5 24.1423 14.5 20Z" fill="#030723"/>
</g>
<path d="M17.8333 59.6667C17.1703 59.6667 16.5344 59.93 16.0656 60.3989C15.5967 60.8677 15.3333 61.5036 15.3333 62.1667V73.8333C15.3333 74.4964 15.5967 75.1322 16.0656 75.6011C16.5344 76.0699 17.1703 76.3333 17.8333 76.3333H26.1667C26.8297 76.3333 27.4656 76.0699 27.9344 75.6011C28.4033 75.1322 28.6667 74.4964 28.6667 73.8333V73C28.6667 72.5398 28.2936 72.1667 27.8333 72.1667C27.3731 72.1667 27 72.5398 27 73V73.8333C27 74.0543 26.9122 74.2663 26.7559 74.4226C26.5996 74.5789 26.3877 74.6667 26.1667 74.6667H17.8333C17.6123 74.6667 17.4004 74.5789 17.2441 74.4226C17.0878 74.2663 17 74.0543 17 73.8333V62.1667C17 61.9456 17.0878 61.7337 17.2441 61.5774C17.4004 61.4211 17.6123 61.3333 17.8333 61.3333H26.1667C26.3877 61.3333 26.5996 61.4211 26.7559 61.5774C26.9122 61.7337 27 61.9456 27 62.1667V63C27 63.4602 27.3731 63.8333 27.8333 63.8333C28.2936 63.8333 28.6667 63.4602 28.6667 63V62.1667C28.6667 61.5036 28.4033 60.8677 27.9344 60.3989C27.4656 59.93 26.8297 59.6667 26.1667 59.6667H17.8333Z" fill="#FF0A00"/>
<path d="M25.9226 64.9107C25.5972 64.5853 25.0695 64.5853 24.7441 64.9107C24.4186 65.2362 24.4186 65.7638 24.7441 66.0892L25.8215 67.1667H22C21.5398 67.1667 21.1667 67.5398 21.1667 68C21.1667 68.4602 21.5398 68.8333 22 68.8333H25.8215L24.7441 69.9107C24.4186 70.2362 24.4186 70.7638 24.7441 71.0892C25.0695 71.4147 25.5972 71.4147 25.9226 71.0892L28.4226 68.5892C28.748 68.2638 28.748 67.7362 28.4226 67.4107L25.9226 64.9107Z" fill="#FF0A00"/>
<defs>
<clipPath id="clip0_2_108">
<rect width="20" height="20" fill="white" transform="translate(12 10)"/>
</clipPath>
</defs>
</svg>
