<svg width="45" height="666" viewBox="0 0 45 666" fill="none" xmlns="http://www.w3.org/2000/svg">
<g clip-path="url(#clip0_2_85)">
<path d="M12.8081 11.3549V29.6451H32.1927" stroke="#030723" stroke-miterlimit="10" stroke-linecap="round" stroke-linejoin="round"/>
<path d="M24.7066 22.4748L28.9874 18.1981V18.1941" stroke="#030723" stroke-miterlimit="10" stroke-linecap="round" stroke-linejoin="round"/>
<path d="M29.8435 18.5519C30.5127 18.5519 31.0551 18.0094 31.0551 17.3403C31.0551 16.6712 30.5127 16.1288 29.8435 16.1288C29.1744 16.1288 28.632 16.6712 28.632 17.3403C28.632 18.0094 29.1744 18.5519 29.8435 18.5519Z" stroke="#030723" stroke-miterlimit="10" stroke-linecap="round" stroke-linejoin="round"/>
<path d="M17.2456 20.6777L12.8073 25.116M22.8106 22.6929L19.1356 20.4516M19.3149 19.8216C19.3149 20.1527 19.1776 20.4596 18.9595 20.6777C18.8472 20.7904 18.7138 20.8798 18.5668 20.9408C18.4199 21.0018 18.2624 21.0332 18.1033 21.0332C17.9442 21.0332 17.7867 21.0018 17.6398 20.9408C17.4929 20.8798 17.3595 20.7904 17.2472 20.6777C17.1341 20.5657 17.0444 20.4323 16.9834 20.2854C16.9224 20.1384 16.8913 19.9807 16.8918 19.8216C16.8918 19.1512 17.4329 18.61 18.1033 18.61C18.7697 18.61 19.3149 19.1512 19.3149 19.8216ZM25.0539 23.3229C25.0539 23.9933 24.5087 24.5344 23.8424 24.5344C23.604 24.535 23.3708 24.4652 23.172 24.3337C22.9732 24.2022 22.8176 24.0149 22.7249 23.7953C22.6321 23.5757 22.6063 23.3336 22.6506 23.0994C22.695 22.8652 22.8075 22.6493 22.9741 22.4789C23.0864 22.3628 23.2209 22.2704 23.3696 22.2073C23.5182 22.1441 23.678 22.1113 23.8395 22.1109C24.001 22.1105 24.161 22.1426 24.3099 22.2051C24.4588 22.2676 24.5937 22.3593 24.7066 22.4748C24.9207 22.6929 25.0539 22.9917 25.0539 23.3229Z" stroke="#030723" stroke-miterlimit="10" stroke-linecap="round" stroke-linejoin="round"/>
</g>
<path d="M29.7895 67.7174L29.7856 67.7018L27.5942 62.1335C27.4966 61.819 27.2055 61.6022 26.8755 61.6022H17.9926C17.6606 61.6022 17.3657 61.8229 17.2719 62.1413L15.2231 67.653L15.2173 67.6667L15.2133 67.6823C15.188 67.778 15.1801 67.8756 15.1938 67.9713C15.1919 68.0026 15.1899 68.0338 15.1899 68.0651V75.2116C15.1904 75.5264 15.3157 75.8281 15.5383 76.0507C15.7609 76.2733 16.0626 76.3986 16.3774 76.3991H28.6274C29.2817 76.3991 29.8149 75.8659 29.8169 75.2116V68.0651C29.8169 68.0397 29.8169 68.0143 29.8149 67.9928C29.8227 67.8971 29.8149 67.8053 29.7895 67.7174ZM24.0122 66.8776L24.0063 67.1842C23.9907 68.0612 23.3852 68.651 22.5005 68.651C22.0688 68.651 21.6977 68.5124 21.4301 68.2487C21.1626 67.985 21.0161 67.6178 21.0083 67.1842L21.0024 66.8776H16.9829L18.5356 63.1022H26.3325L27.9282 66.8776H24.0122ZM16.688 68.3776H19.7602C20.2348 69.4928 21.2446 70.151 22.5024 70.151C23.1606 70.151 23.7719 69.9674 24.2661 69.6198C24.6997 69.3151 25.0376 68.8893 25.2563 68.3776H28.313V74.8991H16.688V68.3776Z" fill="#030723"/>
<path fill-rule="evenodd" clip-rule="evenodd" d="M19.1667 108.667C19.1667 108.206 18.7936 107.833 18.3333 107.833C17.8731 107.833 17.5 108.206 17.5 108.667V109.5H16.6667C16.0036 109.5 15.3677 109.763 14.8989 110.232C14.4301 110.701 14.1667 111.337 14.1667 112V122.833C14.1667 123.496 14.4301 124.132 14.8989 124.601C15.3677 125.07 16.0036 125.333 16.6667 125.333H28.3333C28.9964 125.333 29.6323 125.07 30.1011 124.601C30.5699 124.132 30.8333 123.496 30.8333 122.833V112C30.8333 111.337 30.5699 110.701 30.1011 110.232C29.6323 109.763 28.9964 109.5 28.3333 109.5H27.9167C27.4564 109.5 27.0833 109.873 27.0833 110.333C27.0833 110.794 27.4564 111.167 27.9167 111.167H28.3333C28.5543 111.167 28.7663 111.254 28.9226 111.411C29.0789 111.567 29.1667 111.779 29.1667 112V114.5H15.8333V112C15.8333 111.779 15.9211 111.567 16.0774 111.411C16.2337 111.254 16.4457 111.167 16.6667 111.167H17.5V112C17.5 112.46 17.8731 112.833 18.3333 112.833C18.7936 112.833 19.1667 112.46 19.1667 112V108.667ZM16.0774 123.423C15.9211 123.266 15.8333 123.054 15.8333 122.833V116.167H29.1667V122.833C29.1667 123.054 29.0789 123.266 28.9226 123.423C28.7663 123.579 28.5543 123.667 28.3333 123.667H16.6667C16.4457 123.667 16.2337 123.579 16.0774 123.423Z" fill="#030723"/>
<path d="M25.8333 108.667C25.8333 108.206 25.4602 107.833 25 107.833C24.5398 107.833 24.1667 108.206 24.1667 108.667V109.5H21.25C20.7898 109.5 20.4167 109.873 20.4167 110.333C20.4167 110.794 20.7898 111.167 21.25 111.167H24.1667V112C24.1667 112.46 24.5398 112.833 25 112.833C25.4602 112.833 25.8333 112.46 25.8333 112V108.667Z" fill="#030723"/>
<rect width="44" height="40" transform="translate(0.5 145)" fill="#F0F5FF"/>
<path fill-rule="evenodd" clip-rule="evenodd" d="M25.5 156.667C25.1464 156.667 24.8072 156.807 24.5572 157.057C24.3071 157.307 24.1667 157.646 24.1667 158V161.667H20.5C20.1464 161.667 19.8072 161.807 19.5572 162.057C19.3071 162.307 19.1667 162.646 19.1667 163V167.5H15.5C15.1464 167.5 14.8072 167.64 14.5572 167.891C14.3071 168.141 14.1667 168.48 14.1667 168.833V172C14.1667 172.354 14.3071 172.693 14.5572 172.943C14.8072 173.193 15.1464 173.333 15.5 173.333H29.5C29.8536 173.333 30.1928 173.193 30.4428 172.943C30.6929 172.693 30.8333 172.354 30.8333 172V158C30.8333 157.646 30.6929 157.307 30.4428 157.057C30.1928 156.807 29.8536 156.667 29.5 156.667H25.5ZM20.8333 163.333H24.1667V171.667H20.8333V163.333ZM29.1667 171.667H25.8333V158.333H29.1667V171.667ZM19.1667 169.167V171.667H15.8333V169.167H19.1667Z" fill="#030723"/>
<g clip-path="url(#clip1_2_85)">
<path fill-rule="evenodd" clip-rule="evenodd" d="M22.5 209.667C21.6159 209.667 20.7681 210.018 20.143 210.643C19.5179 211.268 19.1667 212.116 19.1667 213C19.1667 213.884 19.5179 214.732 20.143 215.357C20.7681 215.982 21.6159 216.333 22.5 216.333C23.3841 216.333 24.2319 215.982 24.857 215.357C25.4821 214.732 25.8333 213.884 25.8333 213C25.8333 212.116 25.4821 211.268 24.857 210.643C24.2319 210.018 23.3841 209.667 22.5 209.667ZM21.3215 211.821C21.634 211.509 22.058 211.333 22.5 211.333C22.942 211.333 23.366 211.509 23.6785 211.821C23.9911 212.134 24.1667 212.558 24.1667 213C24.1667 213.442 23.9911 213.866 23.6785 214.179C23.366 214.491 22.942 214.667 22.5 214.667C22.058 214.667 21.634 214.491 21.3215 214.179C21.0089 213.866 20.8333 213.442 20.8333 213C20.8333 212.558 21.0089 212.134 21.3215 211.821Z" fill="#030723"/>
<path fill-rule="evenodd" clip-rule="evenodd" d="M21.6508 203.833C21.2723 203.833 20.9413 204.088 20.845 204.455L20.4227 206.059L19.081 206.624L18.0539 205.711C17.7242 205.417 17.2228 205.432 16.9107 205.744L15.2441 207.411C14.9422 207.713 14.9173 208.194 15.1865 208.525L16.0866 209.634L15.5346 210.992L13.9772 211.355C13.6001 211.443 13.3333 211.779 13.3333 212.167V213.833C13.3333 214.209 13.5848 214.538 13.9473 214.637L15.5571 215.076L16.1242 216.422L15.2114 217.445C14.9174 217.775 14.9317 218.277 15.2441 218.589L16.9107 220.256C17.2131 220.558 17.6951 220.583 18.0265 220.313L19.1344 219.409L20.459 219.954L20.8587 221.537C20.9521 221.907 21.285 222.167 21.6667 222.167H23.3333C23.7148 222.167 24.0476 221.908 24.1412 221.538L24.5419 219.954L25.9108 219.387C26.0486 219.503 26.2066 219.638 26.3638 219.775C26.52 219.911 26.6652 220.039 26.7715 220.134C26.8245 220.181 26.8677 220.219 26.8976 220.246L26.9429 220.286C27.2724 220.582 27.7762 220.569 28.0893 220.256L29.7559 218.589C30.0626 218.283 30.0828 217.792 29.8022 217.461L28.8945 216.391L29.4562 215.034L31.0429 214.622C31.4102 214.526 31.6667 214.195 31.6667 213.815V212.167C31.6667 211.786 31.4081 211.453 31.0388 211.359L29.4619 210.958L28.9016 209.604L29.8031 208.538C30.0828 208.207 30.0623 207.717 29.7559 207.411L28.0893 205.744C27.7817 205.436 27.2892 205.417 26.9585 205.7L25.8999 206.605L24.4988 206.029L24.0851 204.455C23.9889 204.089 23.6578 203.833 23.2792 203.833H21.6508ZM28.0346 217.954L27.4645 218.524L27.4583 218.518C27.1505 218.25 26.7541 217.911 26.5305 217.751C26.2965 217.584 25.9927 217.549 25.7269 217.659L23.5178 218.574C23.2746 218.675 23.0934 218.885 23.0288 219.14L22.6846 220.5H22.3157L21.9721 219.139C21.9075 218.883 21.7254 218.673 21.4812 218.573L19.3095 217.679C19.0267 217.563 18.703 217.611 18.466 217.804L17.5569 218.545L16.9791 217.967L17.7186 217.138C17.9327 216.898 17.9895 216.556 17.8646 216.26L16.9354 214.055C16.836 213.82 16.6337 213.643 16.3868 213.575L15 213.197V212.828L16.3336 212.517C16.5971 212.455 16.8143 212.269 16.9162 212.019L17.8162 209.805C17.9306 209.523 17.8827 209.201 17.691 208.965L16.9539 208.058L17.5334 207.478L18.3661 208.219C18.6062 208.433 18.9476 208.489 19.2437 208.365L21.4479 207.435C21.6861 207.335 21.8642 207.13 21.93 206.88L22.2932 205.5H22.6366L22.9924 206.854C23.0588 207.106 23.2398 207.313 23.4814 207.412L25.7373 208.34C26.0265 208.459 26.3579 208.406 26.5956 208.203L27.4557 207.467L28.0355 208.047L27.3011 208.916C27.0998 209.154 27.0483 209.485 27.1675 209.773L28.0817 211.981C28.1822 212.224 28.3915 212.405 28.6462 212.47L30 212.815V213.171L28.6354 213.525C28.3825 213.591 28.175 213.771 28.075 214.013L27.16 216.223C27.0406 216.511 27.0925 216.842 27.2944 217.081L28.0346 217.954Z" fill="#030723"/>
</g>
<defs>
<clipPath id="clip0_2_85">
<rect width="21" height="21" fill="white" transform="translate(12 10)"/>
</clipPath>
<clipPath id="clip1_2_85">
<rect width="20" height="20" fill="white" transform="translate(12.5 203)"/>
</clipPath>
</defs>
</svg>
