<svg width="20" height="20" viewBox="0 0 20 20" fill="none" xmlns="http://www.w3.org/2000/svg">
<g clip-path="url(#clip0_3_4491)">
<path d="M0.769623 1.29037V18.7096H19.2312" stroke="#030723" stroke-miterlimit="10" stroke-linecap="round" stroke-linejoin="round"/>
<path d="M12.1016 11.8808L16.1785 7.80768V7.80383" stroke="#030723" stroke-miterlimit="10" stroke-linecap="round" stroke-linejoin="round"/>
<path d="M16.9939 8.14461C17.6311 8.14461 18.1477 7.62801 18.1477 6.99076C18.1477 6.35351 17.6311 5.83691 16.9939 5.83691C16.3566 5.83691 15.84 6.35351 15.84 6.99076C15.84 7.62801 16.3566 8.14461 16.9939 8.14461Z" stroke="#030723" stroke-miterlimit="10" stroke-linecap="round" stroke-linejoin="round"/>
<path d="M4.99578 10.1692L0.76886 14.3961M10.2958 12.0884L6.79578 9.95383M6.96655 9.35383C6.96655 9.66921 6.83578 9.96152 6.62809 10.1692C6.52115 10.2765 6.39407 10.3617 6.25415 10.4198C6.11422 10.4779 5.96421 10.5078 5.81271 10.5078C5.6612 10.5078 5.51119 10.4779 5.37127 10.4198C5.23134 10.3617 5.10427 10.2765 4.99732 10.1692C4.88963 10.0626 4.80424 9.93553 4.74614 9.79554C4.68803 9.65555 4.65836 9.5054 4.65886 9.35383C4.65886 8.71537 5.17424 8.19998 5.81271 8.19998C6.44732 8.19998 6.96655 8.71537 6.96655 9.35383ZM12.4323 12.6884C12.4323 13.3269 11.9131 13.8423 11.2785 13.8423C11.0515 13.8428 10.8293 13.7763 10.64 13.6511C10.4506 13.5259 10.3025 13.3475 10.2142 13.1384C10.1258 12.9292 10.1012 12.6987 10.1435 12.4756C10.1857 12.2526 10.2929 12.047 10.4516 11.8846C10.5585 11.7741 10.6866 11.6861 10.8282 11.6259C10.9697 11.5657 11.1219 11.5345 11.2757 11.5342C11.4296 11.5338 11.5819 11.5643 11.7237 11.6238C11.8656 11.6834 11.9941 11.7707 12.1016 11.8808C12.3054 12.0884 12.4323 12.3731 12.4323 12.6884Z" stroke="#030723" stroke-miterlimit="10" stroke-linecap="round" stroke-linejoin="round"/>
</g>
<defs>
<clipPath id="clip0_3_4491">
<rect width="20" height="20" fill="white"/>
</clipPath>
</defs>
</svg>
